<svg xmlns="http://www.w3.org/2000/svg" width="19.043" height="19.048" viewBox="0 0 19.043 19.048">
  <path id="Icon_ionic-ios-settings" data-name="Icon ionic-ios-settings" d="M21.971,14.021a2.45,2.45,0,0,1,1.572-2.286A9.713,9.713,0,0,0,22.367,8.9a2.483,2.483,0,0,1-1,.213,2.445,2.445,0,0,1-2.237-3.442A9.684,9.684,0,0,0,16.307,4.5a2.448,2.448,0,0,1-4.572,0A9.713,9.713,0,0,0,8.9,5.675,2.445,2.445,0,0,1,6.667,9.117a2.4,2.4,0,0,1-1-.213A9.928,9.928,0,0,0,4.5,11.74a2.45,2.45,0,0,1,0,4.572A9.713,9.713,0,0,0,5.68,19.144a2.446,2.446,0,0,1,3.228,3.228,9.77,9.77,0,0,0,2.832,1.175,2.444,2.444,0,0,1,4.562,0,9.713,9.713,0,0,0,2.832-1.175,2.448,2.448,0,0,1,3.228-3.228,9.77,9.77,0,0,0,1.175-2.832A2.462,2.462,0,0,1,21.971,14.021Zm-7.9,3.962a3.967,3.967,0,1,1,3.967-3.967A3.966,3.966,0,0,1,14.066,17.984Z" transform="translate(-4.5 -4.5)"/>
</svg>
