<svg xmlns="http://www.w3.org/2000/svg" width="34.046" height="34.046" viewBox="0 0 34.046 34.046">
  <path id="Icon_ionic-ios-help-circle" data-name="Icon ionic-ios-help-circle" d="M20.4,3.375A17.023,17.023,0,1,0,37.421,20.4,17.02,17.02,0,0,0,20.4,3.375Zm-.352,24.88a1.687,1.687,0,1,1,1.76-1.686A1.709,1.709,0,0,1,20.046,28.255Zm3.29-7.93c-1.424.827-1.907,1.432-1.907,2.48v.647h-2.84l-.025-.7a3.407,3.407,0,0,1,1.931-3.6c1.383-.827,1.964-1.35,1.964-2.365a1.986,1.986,0,0,0-2.2-1.76,2.07,2.07,0,0,0-2.193,2.013H15.16c.057-2.635,2.005-4.5,5.3-4.5,3.069,0,5.181,1.7,5.181,4.149A4.006,4.006,0,0,1,23.336,20.324Z" transform="translate(-3.375 -3.375)" fill="#ff7221"/>
</svg>
