<svg xmlns="http://www.w3.org/2000/svg" width="20.624" height="20.169" viewBox="0 0 20.624 20.169">
  <path id="Icon_material-notifications-active" data-name="Icon material-notifications-active" d="M8.785,5.384,7.306,3.905a10.783,10.783,0,0,0-4.261,8.119H5.114A8.735,8.735,0,0,1,8.785,5.384ZM21.6,12.025h2.069a10.849,10.849,0,0,0-4.261-8.119L17.939,5.384a8.787,8.787,0,0,1,3.661,6.64Zm-2.038.517c0-3.175-1.7-5.834-4.654-6.537V5.3a1.551,1.551,0,1,0-3.1,0V6c-2.968.7-4.654,3.351-4.654,6.537v5.172L5.083,19.782v1.034H21.632V19.782l-2.069-2.069ZM13.357,23.919a1.812,1.812,0,0,0,.414-.041,2.1,2.1,0,0,0,1.489-1.22,2.077,2.077,0,0,0,.155-.807H11.278A2.084,2.084,0,0,0,13.357,23.919Z" transform="translate(-3.045 -3.75)"/>
</svg>
