<svg xmlns="http://www.w3.org/2000/svg" width="33.778" height="38" viewBox="0 0 33.778 38">
  <path id="Icon_material-bug-report" data-name="Icon material-bug-report" d="M39.778,15.056H33.846A12.634,12.634,0,0,0,30,10.918l3.441-3.441L30.468,4.5,25.887,9.081a12.8,12.8,0,0,0-3-.359,12.494,12.494,0,0,0-2.977.359L15.31,4.5,12.333,7.477l3.42,3.441a12.8,12.8,0,0,0-3.821,4.138H6v4.222h4.412a14.013,14.013,0,0,0-.19,2.111V23.5H6v4.222h4.222v2.111a14.014,14.014,0,0,0,.19,2.111H6v4.222h5.932a12.644,12.644,0,0,0,21.913,0h5.932V31.944H35.366a14.013,14.013,0,0,0,.19-2.111V27.722h4.222V23.5H35.556V21.389a14.013,14.013,0,0,0-.19-2.111h4.412ZM27.111,31.944H18.667V27.722h8.444Zm0-8.444H18.667V19.278h8.444Z" transform="translate(-6 -4.5)" fill="#ff7221"/>
</svg>
