<svg xmlns="http://www.w3.org/2000/svg" width="196.612" height="176.1" viewBox="0 0 196.612 176.1">
  <path id="kario_sin_kairo" data-name="kario sin kairo" d="M117.619,112.343l77.739-60.1a2.18,2.18,0,0,0,.853-1.706l.366-48.343A2.178,2.178,0,0,0,194.413,0a2.249,2.249,0,0,0-1.371.457L91.726,80.511a.594.594,0,0,0-.091.853l.03.03,7.219,7.189a6.692,6.692,0,1,1-3.473,8.8,6.593,6.593,0,0,1-.4-4.112L71.347,69.605l.03-.03-67.2-67.2a2.169,2.169,0,0,0-3.077,0A2.3,2.3,0,0,0,.463,3.93V26.5a.6.6,0,0,0,.183.426L70.22,93.67a6.187,6.187,0,0,1,3.716.061,6.639,6.639,0,0,1-3.869,12.7,6.719,6.719,0,0,1-4.691-5.727,7.152,7.152,0,0,1,.091-1.98l-64-61.411a.618.618,0,0,0-.853.061.562.562,0,0,0-.152.366V56.994a2.266,2.266,0,0,0,.67,1.584L87.4,141.556a6.65,6.65,0,1,1-4.2,8.072,6.32,6.32,0,0,1-.091-3.2c-.091-.061-.183-.152-.274-.213L72.352,135.738a2.241,2.241,0,0,0-1.554-.64H.463c-.609,0-.548,11.667-.4,22.542A18.742,18.742,0,0,0,18.8,176.1H177.263a18.9,18.9,0,0,0,18.886-18.886V136.53a2.184,2.184,0,0,0-2.193-2.193h-56.9a2.3,2.3,0,0,1-1.554-.64l-18.125-18.125a2.169,2.169,0,0,1,0-3.077A.481.481,0,0,0,117.619,112.343Z" transform="translate(0.036 0)" fill="#ff721b"/>
</svg>
